<?xml version="1.0" encoding="utf-8"?>
<!-- Generator: Adobe Illustrator 16.0.3, SVG Export Plug-In . SVG Version: 6.00 Build 0)  -->
<!DOCTYPE svg PUBLIC "-//W3C//DTD SVG 1.1//EN" "http://www.w3.org/Graphics/SVG/1.1/DTD/svg11.dtd">
<svg version="1.1" id="Layer_1" xmlns="http://www.w3.org/2000/svg" xmlns:xlink="http://www.w3.org/1999/xlink" x="0px" y="0px"
	 width="1699px" height="509px" viewBox="0 0 1699 509" enable-background="new 0 0 1699 509" xml:space="preserve">
<path fill-rule="evenodd" clip-rule="evenodd" fill="#1A4E97" d="M370.125,10.963c21.642,2.998,40.517,12.91,59.11,23.541
	c25.784,14.744,51.608,29.418,77.337,44.258c18.855,10.873,37.55,21.998,51.937,38.88c14.542,17.063,22.445,37.259,23.042,59.165
	c1.312,48.014,1.691,96.082,1.122,144.111c-0.521,43.908-21.642,76.385-59.497,98.092c-37.208,21.337-74.452,42.613-111.848,63.621
	c-12.78,7.18-26.588,11.913-41.182,14.091c-0.464,0.069-7.124,0.712-13.775,0.611c-6.371-0.096-12.74-0.931-13.351-1.028
	c-16.205-2.584-31.12-8.766-45.29-16.71c-24.11-13.52-48.156-27.164-71.997-41.151c-17.238-10.113-34.067-20.923-51.172-31.267
	c-2.223-1.344-5.001-2.471-7.534-2.496c-20.383-0.204-40.77-0.1-61.155-0.148c-2.249-0.007-4.566-0.099-6.732-0.634
	c-6.235-1.537-9.706-8.068-7.775-14.24c1.819-5.818,5.125-8.148,12.288-8.163c25.96-0.055,51.92,0.05,77.88-0.053
	c7.72-0.03,13.29-5.345,13.131-11.969c-0.156-6.53-5.558-11.3-13.058-11.521c-0.87-0.025-1.742-0.007-2.613-0.007
	c-48.959,0.001-97.92-0.136-146.879,0.134c-8.459,0.046-15.436-1.096-19.015-9.755c0-1.395,0-2.789,0-4.183
	c4.299-8.732,11.885-9.297,20.501-9.262c58.001,0.245,116.004,0.131,174.007,0.124c1.914,0,3.851,0.074,5.736-0.186
	c5.956-0.826,9.954-5.516,9.944-11.469c-0.012-7.244-5.093-11.711-13.568-11.715c-51.384-0.026-102.767-0.013-154.151-0.022
	c-2.087,0-4.2,0.073-6.255-0.213c-4.535-0.629-7.631-3.124-9.04-7.577c-2.596-8.208,2.735-15.117,11.926-15.132
	c37.449-0.063,74.897-0.041,112.347-0.055c1.566,0,3.153,0.116,4.695-0.09c5.374-0.718,9.749-5.188,10.252-10.325
	c0.508-5.184-2.387-10.247-7.384-11.941c-2.395-0.815-5.115-0.913-7.688-0.919c-29.088-0.056-58.176-0.022-87.265-0.047
	c-2.253-0.003-4.561,0.018-6.75-0.43c-7.664-1.564-11.329-9.73-7.648-16.654c2.693-5.064,7.314-5.917,12.421-5.921
	c39.886-0.034,79.773-0.09,119.659-0.142c5.748-0.008,11.496,0.022,17.244-0.051c4.487-0.058,8.046-1.791,10.263-5.914
	c4.711-8.763-1.442-17.416-12.553-17.421c-59.396-0.03-118.793-0.162-178.187,0.151c-8.439,0.045-15.008-1.291-18.508-9.66
	c0-1.395,0-2.789,0-4.182c0.525-0.402,1.328-0.695,1.533-1.223c2.387-6.148,7.188-8.069,13.323-7.883
	c2.957,0.088,5.92-0.04,8.88-0.041c40.928-0.01,81.856,0.02,122.785-0.049c7.649-0.013,12.546-4.812,12.485-11.758
	c-0.059-6.697-4.975-11.564-12.15-11.593c-16.012-0.065-32.026-0.041-48.038,0.128c-7.73,0.082-13.41-4.522-13.453-11.377
	c-0.046-7.239,4.875-11.625,13.054-11.618c10.972,0.009,21.943,0.032,32.916,0.042c12.888,0.011,25.777,0.14,38.663-0.02
	c9.334-0.116,15.077-8.375,11.554-16.435c-2.401-5.493-6.991-7.145-12.75-7.124c-29.955,0.105-59.912,0.059-89.867,0.047
	c-2.435-0.001-4.898,0.082-7.298-0.248c-7.403-1.018-11.711-8.882-8.769-15.708c2.354-5.462,6.813-6.889,12.302-6.875
	c26.125,0.063,52.25,0.104,78.372-0.095c2.692-0.021,5.675-1.207,8.005-2.674c8.236-5.184,15.996-11.154,24.39-16.049
	c29.149-16.999,58.454-33.733,87.768-50.446c18.482-10.538,37.274-20.368,58.866-23.03c0.528-0.064,6.419-0.694,12.201-0.73
	C363.652,10.297,369.326,10.853,370.125,10.963z M433.582,157.047c-36.225,0-72.451-0.02-108.676,0.015
	c-8.851,0.009-13.605,4.629-13.814,13.377c-0.125,5.223-0.146,10.453,0.008,15.673c0.23,7.756,4.468,12.216,12.166,12.985
	c1.9,0.19,3.826,0.167,5.74,0.184c21.939,0.2,43.88,0.278,65.816,0.63c10.678,0.171,15.892,5.305,16.72,16
	c0.456,5.894,0.766,11.814,0.777,17.725c0.08,40.055,0.043,80.111,0.09,120.169c0.011,9.299,3.979,13.392,13.242,13.604
	c5.916,0.137,11.846,0.115,17.758-0.116c5.979-0.235,9.911-3.838,10.96-9.848c0.446-2.556,0.646-5.185,0.65-7.781
	c0.042-32.395,0.001-64.787,0.041-97.182c0.014-11.841,0.04-23.685,0.332-35.521c0.264-10.692,5.353-16.084,15.753-17.047
	c3.98-0.367,7.994-0.494,11.994-0.509c19.156-0.075,38.313-0.015,57.47-0.122c11.099-0.064,15.129-4.17,15.214-15.127
	c0.033-4.005,0.04-8.012,0.005-12.017c-0.095-11.084-4.096-15.073-15.14-15.075C504.988,157.057,469.285,157.062,433.582,157.047z
	 M254.293,262.629c0,30.29-0.147,60.583,0.187,90.871c0.042,3.789,1.748,8.312,4.221,11.159c4.461,5.138,28.696,4.729,33.822,0.147
	c3.864-3.453,4.414-8.037,4.412-12.88c-0.021-59.712,0.003-119.424-0.012-179.136c0-1.903-0.109-3.842-0.475-5.703
	c-1.246-6.336-5.577-9.912-12.075-10.02c-4.874-0.08-9.749-0.043-14.623-0.039c-11.658,0.013-15.461,3.894-15.462,15.77
	C254.286,202.742,254.287,232.685,254.293,262.629z"/>
<path fill-rule="evenodd" clip-rule="evenodd" fill="#1A4E97" d="M13.1,252.139c5.987-9.366,17.023-12.938,28.022-9.066
	c4.56,1.605,7.633,6.006,7.514,10.758c-0.137,5.456-3.427,10.332-8.646,10.877c-5.972,0.623-12.376,1.167-17.999-0.394
	c-3.529-0.978-5.965-5.89-8.892-9.038C13.1,254.229,13.1,253.184,13.1,252.139z"/>
<path fill-rule="evenodd" clip-rule="evenodd" fill="#96989A" d="M1682.026,226.942c0,20.556,0.006,41.109-0.002,61.665
	c-0.004,8.378-2.535,10.957-10.732,10.99c-2.613,0.01-5.227,0.026-7.838-0.019c-7.269-0.125-9.981-2.811-10.035-10.259
	c-0.094-12.716,0.023-25.433-0.121-38.148c-0.045-3.973-0.411-7.979-1.052-11.902c-0.914-5.603-5.341-7.422-9.261-3.372
	c-3.675,3.8-6.572,8.479-9.245,13.1c-8.333,14.411-16.393,28.979-24.568,43.481c-2.495,4.429-6.256,6.904-11.38,7.029
	c-4.527,0.109-9.089-0.266-13.579,0.165c-7.982,0.764-12.731-3.455-16.31-9.752c-9.242-16.269-18.405-32.582-27.699-48.82
	c-1.01-1.765-2.48-3.369-4.035-4.698c-4.525-3.867-8.667-2.602-9.772,3.292c-0.89,4.741-1.14,9.647-1.207,14.487
	c-0.166,11.843-0.027,23.69-0.08,35.535c-0.031,6.934-2.87,9.771-9.722,9.874c-2.96,0.045-5.922,0.054-8.884,0.007
	c-6.901-0.11-9.862-2.943-9.928-9.844c-0.104-10.799-0.03-21.601-0.034-32.4c-0.01-29.961-0.02-59.923-0.032-89.885
	c-0.005-10.592,2.321-13.016,12.67-13.074c3.307-0.019,6.664-0.294,9.911,0.163c5.702,0.803,9.675,4.222,12.466,9.226
	c16.124,28.918,32.293,57.811,48.464,86.703c4.732,8.456,11.978,9.143,17.41,1.029c5.189-7.754,9.452-16.134,14.065-24.27
	c12.399-21.865,24.698-43.789,37.25-65.566c1.378-2.396,3.952-5.398,6.288-5.703c7.108-0.93,14.441-1.355,21.551-0.635
	c4.516,0.457,5.503,5.013,5.482,9.413C1681.978,185.484,1682.026,206.213,1682.026,226.942z"/>
<path fill-rule="evenodd" clip-rule="evenodd" fill="#96989A" d="M705.22,154.342c20.386,0,40.771-0.008,61.157,0.002
	c7.689,0.005,10.267,2.373,10.996,10.023c1.448,15.193-1.219,18.156-16.31,18.152c-30.665-0.005-61.332-0.055-91.998,0.042
	c-6.422,0.021-12.857,0.425-19.261,0.959c-7.187,0.6-10.796,3.827-11.051,9.339c-0.3,6.483,2.231,9.578,9.809,10.957
	c4.242,0.771,8.628,1.01,12.951,1.031c22.476,0.109,44.954,0.064,67.431,0.088c27.89,0.03,47.556,18.667,48.367,46.555
	c0.841,28.873-22.05,48.295-44.755,48.134c-38.329-0.271-76.664-0.009-114.995-0.039c-7.033-0.006-9.765-2.887-9.893-9.846
	c-0.321-17.444,0.461-18.252,17.843-18.242c29.968,0.017,59.937,0.095,89.906,0.018c5.377-0.014,10.778-0.441,16.125-1.062
	c7.15-0.829,13.995-7.611,15.518-14.911c1.61-7.724-0.828-13.729-8.351-17.83c-3.827-2.086-8.412-3.808-12.684-3.878
	c-25.955-0.429-51.917-0.291-77.877-0.428c-18.077-0.095-31.389-7.627-38.062-25.049c-9.738-25.42,6.152-53.033,34.5-53.836
	c20.195-0.571,40.42-0.111,60.632-0.111C705.22,154.389,705.22,154.365,705.22,154.342z"/>
<path fill-rule="evenodd" clip-rule="evenodd" fill="#96989A" d="M1052.46,154.37c20.03,0,40.061-0.009,60.091,0.005
	c8.488,0.006,11.02,2.725,11.267,11.117c0.479,16.314-1.052,17.213-17.225,17.104c-33.267-0.227-66.535-0.049-99.803,0.061
	c-3.978,0.013-7.975,0.475-11.924,1.008c-5.602,0.758-8.942,4.061-9.342,8.844c-0.49,5.855,1.408,9.21,7.486,10.677
	c4.996,1.207,10.286,1.614,15.449,1.652c22.642,0.171,45.286,0.05,67.93,0.089c23.955,0.042,42.517,14.379,46.672,37.824
	c4.925,27.795-9.636,49.248-35.208,56.131c-2.959,0.796-6.214,0.676-9.334,0.678c-37.971,0.024-75.94,0.012-113.911-0.045
	c-7.475-0.013-9.867-2.541-9.943-10.079c-0.027-2.786-0.035-5.575,0.019-8.36c0.125-6.415,3.27-9.632,9.604-9.632
	c31.353,0,62.704,0.094,94.056,0.034c6.247-0.012,12.516-0.313,18.737-0.889c9.723-0.901,16.59-9.371,17.06-19.004
	c0.467-9.617-11.031-17.604-19.13-17.78c-15.494-0.336-30.999-0.201-46.497-0.396c-14.086-0.178-28.229,0.211-42.234-0.982
	c-20.73-1.766-34.021-22.794-32.138-42.791c2.213-23.494,22.046-36.055,41.366-35.404
	C1014.471,154.869,1033.474,154.37,1052.46,154.37z"/>
<path fill-rule="evenodd" clip-rule="evenodd" fill="#96989A" d="M1220.126,154.369c24.566,0,49.133,0.001,73.698-0.001
	c7.854-0.001,10.716,2.782,10.846,10.562c0.282,16.992-0.312,17.49-17.285,17.621c-13.914,0.107-27.846,0.165-41.732,0.902
	c-8.071,0.429-10.85,3.854-10.905,12.215c-0.195,30.314-0.184,60.627-0.252,90.943c-0.004,1.567,0.102,3.15-0.084,4.698
	c-0.645,5.406-3.458,8.034-8.931,8.236c-3.478,0.127-6.968,0.054-10.45-0.028c-6.375-0.149-9.116-2.859-9.16-9.262
	c-0.07-10.452-0.014-20.906-0.012-31.361c0.001-18.467,0.016-36.935-0.006-55.403c-0.021-18.345-2.631-20.925-21.217-20.966
	c-13.067-0.029-26.134,0.047-39.201-0.029c-7.083-0.041-9.717-2.769-9.775-9.774c-0.025-2.788-0.028-5.576,0.001-8.363
	c0.071-6.95,3.096-9.965,10.245-9.976C1170.646,154.348,1195.387,154.369,1220.126,154.369z"/>
<path fill-rule="evenodd" clip-rule="evenodd" fill="#96989A" d="M854.461,266.56c0-6.618-0.141-13.239,0.034-19.853
	c0.228-8.612-2.668-15.764-8.532-22.133c-12.354-13.418-24.396-27.121-36.556-40.719c-5.905-6.604-11.925-13.117-17.577-19.932
	c-1.495-1.803-3.108-5.248-2.338-6.725c0.872-1.672,4.33-2.633,6.722-2.756c6.774-0.352,13.579-0.157,20.371-0.104
	c7.034,0.055,11.919,3.958,16.304,8.982c8.093,9.271,16.557,18.224,24.474,27.639c9.139,10.865,16.816,7.522,24.656-1.078
	c9.243-10.141,18.177-20.582,27.828-30.316c2.74-2.764,7.396-4.506,11.376-4.97c6.875-0.802,13.918-0.437,20.871-0.126
	c2.187,0.098,5.433,1.057,6.151,2.584c0.722,1.534-0.552,4.707-1.908,6.393c-4.668,5.798-9.739,11.271-14.685,16.846
	c-14.172,15.976-28.261,32.027-42.596,47.855c-4.476,4.94-5.47,10.824-5.604,16.874c-0.322,14.624-0.192,29.259-0.266,43.89
	c-0.038,8.061-2.547,10.62-10.466,10.691c-2.787,0.026-5.575,0.022-8.36-0.058c-6.945-0.2-9.663-2.925-9.745-9.994
	c-0.09-7.663-0.02-15.327-0.02-22.992C854.551,266.56,854.506,266.56,854.461,266.56z"/>
<path fill-rule="evenodd" clip-rule="evenodd" fill="#96989A" d="M1400.556,233.429c-24.188,0-48.376,0.003-72.563-0.001
	c-9.198-0.002-12.192-2.964-12.229-12.078c-0.005-1.219-0.016-2.438,0.013-3.654c0.242-10.424,2.671-12.766,13.124-12.765
	c47.853,0.003,95.706-0.007,143.56-0.01c10.325-0.001,12.966,2.622,12.979,12.872c0.002,1.74,0.065,3.482-0.002,5.221
	c-0.274,7.211-3.505,10.392-10.751,10.402C1449.975,233.448,1425.266,233.428,1400.556,233.429z"/>
<path fill-rule="evenodd" clip-rule="evenodd" fill="#96989A" d="M1399.941,182.516c-24.385-0.002-48.771,0.012-73.156-0.012
	c-7.403-0.006-10.349-2.729-10.977-10.123c-0.161-1.904-0.076-3.831-0.042-5.746c0.171-9.793,2.722-12.271,12.493-12.27
	c48.598,0.006,97.194,0.004,145.791,0.003c8.521,0,11.286,2.7,11.395,11.136c0.204,15.939-0.84,17.014-16.526,17.014
	C1445.926,182.518,1422.934,182.518,1399.941,182.516z"/>
<path fill-rule="evenodd" clip-rule="evenodd" fill="#96989A" d="M1400.63,299.628c-24.54,0-49.081,0.022-73.623-0.013
	c-8.312-0.01-10.593-2.029-11.158-10.229c-0.227-3.257-0.002-6.601,0.47-9.84c0.824-5.673,3.774-8.091,9.496-8.091
	c49.604-0.001,99.208,0.012,148.813,0.054c7.842,0.008,10.674,2.871,10.813,10.674c0.043,2.437,0.063,4.876-0.008,7.31
	c-0.211,7.297-2.918,10.083-10.134,10.097c-24.889,0.052-49.779,0.021-74.668,0.021
	C1400.63,299.615,1400.63,299.622,1400.63,299.628z"/>
<g>
	<g>
		<path fill-rule="evenodd" clip-rule="evenodd" fill="#1A4E97" d="M1685.899,384.917c-4.95,10.705-13.798,14.137-24.968,13.795
			c-9.2-0.281-18.416-0.058-28.038-0.058c0-2.757,0-5.261,0-8.51c9.011,0,18.173,0.027,27.335-0.009
			c8.989-0.034,12.438-3.594,12.052-12.343c-0.27-6.092-3.469-9.562-9.709-9.988c-5.898-0.404-11.854-0.122-17.729-0.708
			c-11.805-1.177-18.985-10.331-16.269-20.771c2.275-8.739,9.252-12.895,17.348-13.523c11.384-0.881,22.886-0.221,34.998-0.221
			c0.107,2.334,0.23,4.991,0.389,8.473c-5.914,0-11.228-0.049-16.539,0.014c-5.74,0.067-11.488,0.065-17.211,0.431
			c-3.439,0.221-5.944,1.949-5.88,5.939c0.067,4.132-0.774,8.758,4.739,10.258c2.311,0.63,4.754,0.913,7.153,1.046
			c4.509,0.25,9.081-0.109,13.535,0.477c8.822,1.163,15.414,5.646,18.794,14.197
			C1685.899,377.251,1685.899,381.083,1685.899,384.917z"/>
		<path fill-rule="evenodd" clip-rule="evenodd" fill="#1A4E97" d="M940.636,421.509c0-3.308,0-5.715,0-9.032
			c3.893,0,7.626,0.006,11.359-0.002c6.438-0.013,12.878,0.108,19.311-0.082c9.102-0.27,11.753-3.538,10.798-13.731
			c-6.799,0-13.718,0.36-20.576-0.126c-4.566-0.324-9.28-1.271-13.509-2.979c-6.854-2.766-9.668-8.596-9.649-15.862
			c0.021-8.874,0.021-17.746,0.046-26.619c0.033-11.416,4.086-16.991,15.242-19.802c9.562-2.407,19.303-2.51,28.793,0.438
			c9.714,3.019,13.53,8.383,13.568,18.437c0.063,16.702,0.06,33.405-0.016,50.107c-0.041,8.861-4.329,15.324-13.054,16.995
			c-8.59,1.645-17.501,1.716-26.286,2.206C951.501,421.746,946.309,421.509,940.636,421.509z M951.781,365.056
			c-0.016,0-0.031,0-0.046,0c0,5.226-0.184,10.461,0.049,15.678c0.26,5.878,3.324,9.031,9.104,9.375
			c4.337,0.259,8.729,0.305,13.055-0.048c4.826-0.392,8.472-2.869,8.572-8.124c0.21-10.959,0.237-21.928-0.05-32.882
			c-0.135-5.149-3.496-7.777-8.616-7.897c-4.18-0.1-8.368-0.161-12.543-0.005c-6.536,0.243-9.19,2.787-9.483,9.271
			C951.605,355.291,951.781,360.178,951.781,365.056z"/>
		<path fill-rule="evenodd" clip-rule="evenodd" fill="#1A4E97" d="M829.402,310.422c0,29.232,0,58.375,0,88.304
			c-4.467,0-8.904,0.014-13.342-0.003c-7.826-0.028-15.657,0.072-23.477-0.15c-10.757-0.306-21.623-6.987-20.56-20.987
			c0.604-7.955,0.109-15.993,0.109-23.994c0-12.414,5.779-19.45,18.244-20.938c8.247-0.986,16.622-0.895,25.544-1.313
			c0-6.671,0-13.538,0-20.918C820.697,310.422,824.895,310.422,829.402,310.422z M816.299,341.091c-7.2,0-13.782-0.094-20.361,0.023
			c-7.728,0.139-10.382,2.651-10.57,10.396c-0.208,8.525-0.116,17.061-0.055,25.59c0.078,10.551,2.708,13.069,13.451,13.085
			c2.785,0.004,5.58,0.132,8.353-0.066c5.657-0.402,8.993-3.031,9.095-8.133C816.475,368.604,816.299,355.212,816.299,341.091z"/>
		<path fill-rule="evenodd" clip-rule="evenodd" fill="#1A4E97" d="M765.569,398.233c-14.149,0-27.887,0.684-41.512-0.251
			c-8.446-0.582-16.748-7.161-16.364-19.458c0.233-7.483-0.152-15.146,7.289-19.337c4.226-2.379,9.299-3.927,14.132-4.4
			c7.381-0.721,14.886-0.19,22.216-0.19c1.992-8.169-1.047-12.914-8.642-13.347c-6.591-0.376-13.218-0.131-19.829-0.194
			c-1.862-0.019-3.722-0.156-5.848-0.25c0-2.998,0-5.544,0-8.876c12.383,0.329,24.857-2.054,36.935,2.55
			c7.612,2.902,11.603,8.555,11.615,16.802C765.583,366.753,765.569,382.224,765.569,398.233z M751.977,363.113
			c-7.582,0-14.522-0.235-21.437,0.075c-5.318,0.241-8.784,3.251-9.283,8.749c-0.296,3.259-0.242,6.595,0.085,9.856
			c0.506,5.055,3.802,7.93,8.62,8.181c7.228,0.377,14.489,0.099,22.015,0.099C751.977,380.979,751.977,372.383,751.977,363.113z"/>
		<path fill-rule="evenodd" clip-rule="evenodd" fill="#1A4E97" d="M1257.578,365.819c0-3.999,0.01-7.998-0.002-11.995
			c-0.039-11.786,4.184-17.752,15.629-20.597c9.732-2.419,19.668-2.466,29.296,0.696c8.846,2.906,12.644,8.11,12.86,17.435
			c0.223,9.556,0.246,19.129-0.066,28.681c-0.351,10.7-6.83,17.524-17.6,18.317c-7.089,0.521-14.269,0.507-21.364,0.057
			c-9.258-0.588-19.795-7.452-18.723-20.087c0.353-4.14,0.055-8.336,0.055-12.507
			C1257.635,365.819,1257.606,365.819,1257.578,365.819z M1302.259,365.584c0.006,0,0.012,0,0.017,0
			c0-2.437,0.006-4.875-0.002-7.312c-0.008-2.438,0.075-4.882-0.066-7.312c-0.388-6.697-3.15-9.555-9.684-9.818
			c-4.17-0.167-8.354-0.051-12.531-0.002c-4.899,0.057-8.332,2.492-8.487,7.377c-0.359,11.283-0.502,22.602-0.007,33.874
			c0.239,5.464,3.697,8.038,9.927,7.607c7.185-0.498,16.295,3.704,20.201-6.735c0.532-1.419,0.579-3.071,0.605-4.621
			C1302.31,374.29,1302.259,369.938,1302.259,365.584z"/>
		<path fill-rule="evenodd" clip-rule="evenodd" fill="#1A4E97" d="M657.309,365.536c0,6.122-0.38,11.673,0.111,17.145
			c0.453,5.048,4.264,7.402,10.826,7.445c10.051,0.066,20.102,0.018,30.427,0.018c0,2.946,0,5.445,0,8.129
			c-13.03,0-25.907,0.786-38.639-0.237c-11.077-0.892-16.504-8.446-16.508-19.72c-0.002-8.176,0.007-16.352,0.009-24.528
			c0.002-12.005,4.406-18.911,16.02-20.629c8.888-1.313,18.391-0.946,27.253,0.679c10.458,1.916,14.228,8.124,14.23,18.68
			c0.001,4.141,0,8.279,0,13.02C686.271,365.536,671.929,365.536,657.309,365.536z M686.901,356.309
			c1.985-11.479-0.882-15.029-11.792-15.184c-1.738-0.024-3.476-0.025-5.213-0.013c-11.244,0.079-14.006,3.426-12.212,15.196
			C667.276,356.309,676.924,356.309,686.901,356.309z"/>
		<path fill-rule="evenodd" clip-rule="evenodd" fill="#1A4E97" d="M1499.515,365.468c0-5.216-0.032-10.434,0.008-15.65
			c0.056-7.038,3.687-11.993,9.88-14.592c12.2-5.121,24.682-4.964,37.01-0.314c6.188,2.334,10.173,7.034,10.394,13.7
			c0.373,11.282,0.645,22.622-0.074,33.871c-0.592,9.232-8.174,15.429-18.221,15.968c-6.762,0.362-13.585,0.428-20.336-0.032
			c-10.038-0.685-20.032-7.663-18.778-20.434c0.406-4.134,0.064-8.341,0.064-12.517
			C1499.478,365.468,1499.496,365.468,1499.515,365.468z M1543.786,365.062c0.009,0,0.016,0,0.023-0.002
			c0-4.86,0.143-9.728-0.035-14.583c-0.228-6.21-3.205-9.128-9.454-9.351c-4.162-0.147-8.338-0.146-12.498,0.027
			c-5.708,0.238-8.556,2.486-8.768,8.172c-0.398,10.741-0.405,21.514-0.074,32.258c0.175,5.629,3.417,8.249,9.227,8.513
			c3.985,0.181,7.993,0.186,11.979,0.006c6.114-0.275,9.235-3.268,9.547-9.421C1543.996,375.485,1543.786,370.268,1543.786,365.062z
			"/>
		<path fill-rule="evenodd" clip-rule="evenodd" fill="#1A4E97" d="M1621.273,398.464c-4.595,0-8.691,0-13.444,0
			c0-1.954,0-3.637,0-5.32c-0.002-13.408,0.08-26.817-0.036-40.223c-0.082-9.449-2.466-11.74-11.786-11.829
			c-4.525-0.043-9.057,0.121-13.58,0.01c-3.865-0.095-5.457,1.165-5.381,5.453c0.273,15.492,0.109,30.993,0.109,46.489
			c0,1.695,0,3.389,0,5.402c-4.62,0-8.707,0-13.064,0c-0.162-1.301-0.434-2.463-0.436-3.629
			c-0.028-19.326,0.072-38.654-0.105-57.979c-0.035-3.85,1.04-5.27,4.988-5.116c11.635,0.453,23.361-0.137,34.9,1.101
			c12.558,1.346,17.804,8.229,17.829,20.628C1621.296,368.244,1621.273,383.037,1621.273,398.464z"/>
		<path fill-rule="evenodd" clip-rule="evenodd" fill="#1A4E97" d="M1417.127,331.8c0,22.491,0,44.207,0,66.903
			c-2.159,0-4.489,0.004-6.82,0c-9.747-0.019-19.493,0.002-29.239-0.069c-11.106-0.081-22.449-6.668-21.533-21.755
			c0.779-12.83,0.434-25.759-0.031-38.622c-0.2-5.556,1.745-7.172,6.81-6.492c2.027,0.271,4.1,0.215,6.684,0.331
			c0.108,2.352,0.278,4.363,0.282,6.374c0.024,13.575-0.01,27.15,0.025,40.727c0.02,7.434,3.319,10.78,10.789,10.93
			c4.697,0.093,9.408-0.167,14.094,0.072c4.294,0.221,5.852-1.453,5.802-5.761c-0.171-15.314-0.075-30.63-0.079-45.945
			c-0.002-6.703,0-6.701,6.862-6.692C1412.658,331.802,1414.545,331.8,1417.127,331.8z"/>
		<path fill-rule="evenodd" clip-rule="evenodd" fill="#1A4E97" d="M918.463,398.415c0-15.175,0.017-29.771-0.007-44.367
			c-0.016-10.492-2.445-12.902-12.931-12.93c-3.828-0.009-7.669,0.208-11.481-0.04c-4.793-0.31-6.848,1.267-6.743,6.465
			c0.322,15.827,0.205,31.663,0.238,47.497c0.002,1.004-0.172,2.011-0.295,3.368c-4.294,0-8.377,0-13.098,0
			c0-2.658,0.008-5.194-0.001-7.731c-0.06-17.746-0.008-35.498-0.27-53.241c-0.062-4.203,0.966-5.92,5.47-5.726
			c11.282,0.485,22.631,0.01,33.866,0.959c12.535,1.059,18.572,8.231,18.663,20.625c0.103,13.745,0.049,27.493,0.037,41.239
			c-0.002,1.179-0.201,2.354-0.341,3.882C927.258,398.415,923.188,398.415,918.463,398.415z"/>
		<path fill-rule="evenodd" clip-rule="evenodd" fill="#1A4E97" d="M1246.68,341.065c-8.505,0-16.458-0.003-24.41,0.002
			c-2.088,0.001-4.182-0.067-6.264,0.053c-7.399,0.428-9.106,2.032-9.081,8.368c0.026,6.271,2.563,8.777,9.33,9.286
			c6.89,0.518,13.96,0.268,20.625,1.788c11.248,2.565,15.529,10.295,14.067,23.001c-0.844,7.346-9.419,14.613-18.448,14.872
			c-11.291,0.325-22.599,0.078-34.366,0.078c0-2.539,0-5.031,0-8.369c1.956,0,4.137,0,6.319,0c7.135,0,14.271,0.029,21.405-0.009
			c7.978-0.04,11.49-3.118,11.608-10.08c0.156-9.108-2.571-12.061-11.47-12.355c-4.521-0.15-9.053-0.105-13.563-0.402
			c-11.124-0.731-18.389-6.816-18.956-15.687c-0.589-9.197,5.761-17.361,16.692-18.677c11.165-1.342,22.587-1.376,33.837-0.816
			C1249.223,332.375,1245.813,337.471,1246.68,341.065z"/>
		<path fill-rule="evenodd" clip-rule="evenodd" fill="#1A4E97" d="M1428.565,331.45c0-7.068,0-13.954,0-21.527
			c4.018,0,7.492-0.325,10.838,0.188c1.073,0.165,2.5,2.512,2.572,3.921c0.294,5.689,0.122,11.401,0.122,17.785
			c4.935,0,9.408,0.168,13.862-0.051c3.714-0.182,3.775,2.062,3.75,4.689c-0.025,2.591-0.035,4.882-3.763,4.688
			c-4.31-0.225-8.642-0.052-13.848-0.052c0,3.443,0,6.488,0,9.532c0.001,9.397-0.065,18.797,0.021,28.192
			c0.077,8.332,2.978,11.143,11.404,11.321c1.883,0.039,3.768,0.006,5.921,0.006c0,2.951,0,5.48,0,8.441
			c-7.709,0.093-15.101,0.87-22.01-3.159c-5.771-3.363-8.809-8.169-8.816-14.833c-0.017-11.659-0.047-23.32,0.075-34.979
			c0.033-3.196-0.762-5.082-4.38-4.539c-3.617,0.544-4.896-1.001-4.864-4.658c0.032-3.689,1.421-5.071,4.999-4.66
			C1425.602,331.89,1426.802,331.598,1428.565,331.45z"/>
		<path fill-rule="evenodd" clip-rule="evenodd" fill="#1A4E97" d="M1097.967,398.22c0-26.443,0-52.496,0-79.154
			c-7.394,0-14.431,0-21.722,0c0-3.143,0-5.675,0-8.631c19.128,0,37.988,0,57.212,0c0,2.681,0,5.198,0,8.433
			c-7.038,0-14.233,0-21.814,0c0,26.736,0,52.778,0,79.353C1107.076,398.22,1102.9,398.22,1097.967,398.22z"/>
		<path fill-rule="evenodd" clip-rule="evenodd" fill="#1A4E97" d="M636.727,390.399c0,2.901,0,5.266,0,8.917
			c-6.517-0.799-12.816-0.813-18.649-2.468c-8.231-2.334-12.214-8.675-12.232-17.289c-0.046-21.59-0.033-43.181-0.025-64.771
			c0.001-1.361,0.16-2.722,0.271-4.477c4.297,0,8.378,0,13.051,0c0.094,1.964,0.256,3.793,0.258,5.623
			c0.018,20.023,0.013,40.046,0.01,60.07c-0.001,11.814,2.072,13.935,13.829,14.146
			C634.263,390.172,635.283,390.295,636.727,390.399z"/>
		<path fill-rule="evenodd" clip-rule="evenodd" fill="#1A4E97" d="M1353.229,390.515c0,2.771,0,5.013,0,7.715
			c-8.656,0.905-17.371,1.628-24.275-4.386c-3.229-2.813-6.465-7.67-6.568-11.681c-0.608-23.792-0.301-47.607-0.301-72.255
			c3.687,0,7.188-0.447,10.458,0.229c1.234,0.255,2.732,3.102,2.748,4.78c0.191,19.645,0.127,39.291,0.123,58.938
			c-0.003,14.521,1.117,15.704,15.475,16.313C1351.551,390.196,1352.207,390.359,1353.229,390.515z"/>
		<path fill-rule="evenodd" clip-rule="evenodd" fill="#1A4E97" d="M1056.357,310.305c4.462,0,8.221,0,12.355,0
			c0,29.388,0,58.49,0,88.018c-3.935,0-7.971,0-12.355,0C1056.357,369.103,1056.357,339.98,1056.357,310.305z"/>
		<path fill-rule="evenodd" clip-rule="evenodd" fill="#1A4E97" d="M1497.234,390.389c0,2.846,0,5.206,0,8.823
			c-6.327-0.678-12.464-0.574-18.154-2.12c-8.915-2.422-12.73-8.504-12.733-17.916c-0.006-15.484-0.002-30.971-0.002-47.381
			c3.615,0,7.072-0.39,10.346,0.211c1.152,0.212,2.623,2.843,2.646,4.39c0.202,12.878,0.144,25.762,0.075,38.646
			c-0.066,12.648,2.039,14.854,14.726,15.113C1494.993,390.172,1495.847,390.28,1497.234,390.389z"/>
		<path fill-rule="evenodd" clip-rule="evenodd" fill="#1A4E97" d="M849.531,331.771c0,13.592-0.001,26.449,0.001,39.308
			c0.002,2.265-0.027,4.53,0.035,6.793c0.244,8.901,3.605,12.204,12.456,12.271c1.55,0.012,3.1,0.002,5.047,0.002
			c0,2.757,0,5.255,0,8.985c-5.977-0.619-12.136-0.45-17.809-2.031c-8.798-2.453-12.825-8.725-12.875-17.966
			c-0.073-13.585,0.225-27.178-0.119-40.753c-0.135-5.297,1.492-7.383,6.76-6.652C844.884,331.987,846.808,331.771,849.531,331.771z
			"/>
	</g>
</g>
<path fill-rule="evenodd" clip-rule="evenodd" fill="#1A4E97" d="M1466.43,316.389c-1.035-4.939,1.585-6.513,6.095-6.481
	c5.796,0.041,6.808,1.174,6.951,7.033c0.116,4.772-1.984,6.378-6.622,6.394C1467.855,323.351,1465.64,321.49,1466.43,316.389z"/>
<path fill-rule="evenodd" clip-rule="evenodd" fill="#1A4E97" d="M849.531,317.096c0.966,4.711-1.779,6.242-6.462,6.167
	c-5.421-0.09-6.682-1.243-6.703-6.714c-0.021-5.461,1.155-6.612,6.718-6.573C848.753,310.016,849.53,310.812,849.531,317.096z"/>
<path fill-rule="evenodd" clip-rule="evenodd" fill="#FFFFFF" d="M433.582,157.055c35.703,0.007,71.406,0.002,107.108,0.01
	c11.043,0.002,15.044,3.991,15.14,15.075c0.035,4.005,0.027,8.012-0.005,12.017c-0.085,10.957-4.116,15.063-15.214,15.127
	c-19.157,0.107-38.314,0.047-57.47,0.122c-4,0.015-8.014,0.142-11.994,0.509c-10.401,0.963-15.49,6.354-15.753,17.047
	c-0.292,11.836-0.318,23.68-0.332,35.521c-0.04,32.395,0.001,64.787-0.041,97.182c-0.004,2.597-0.204,5.226-0.65,7.781
	c-1.05,6.01-4.982,9.612-10.96,9.848c-5.912,0.231-11.842,0.253-17.758,0.116c-9.262-0.213-13.231-4.306-13.242-13.604
	c-0.047-40.058-0.011-80.114-0.09-120.169c-0.012-5.91-0.321-11.831-0.777-17.725c-0.828-10.695-6.042-15.829-16.72-16
	c-21.937-0.352-43.877-0.43-65.816-0.63c-1.914-0.017-3.84,0.007-5.74-0.184c-7.697-0.77-11.936-5.229-12.166-12.985
	c-0.154-5.22-0.134-10.45-0.008-15.673c0.209-8.748,4.964-13.368,13.814-13.377C361.131,157.027,397.357,157.047,433.582,157.055z"
	/>
<path fill-rule="evenodd" clip-rule="evenodd" fill="#FFFFFF" d="M254.29,262.629c-0.003-29.944-0.004-59.887-0.002-89.83
	c0-11.876,3.804-15.757,15.462-15.77c4.874-0.004,9.749-0.041,14.623,0.039c6.498,0.107,10.829,3.684,12.075,10.02
	c0.366,1.861,0.474,3.8,0.475,5.703c0.015,59.712-0.009,119.424,0.012,179.136c0.002,4.843-0.548,9.427-4.412,12.88
	c-5.126,4.581-29.361,4.99-33.822-0.147c-2.473-2.848-4.179-7.37-4.221-11.159C254.146,323.212,254.293,292.919,254.29,262.629z"/>
<path fill-rule="evenodd" clip-rule="evenodd" fill="#1A4E97" d="M72.804,172.447c-3.765,0.105-8.672,0.416-12.254-4.02
	c-2.763-3.419-3.56-7.178-2.024-11.221c1.593-4.195,4.625-6.998,9.28-7.32c3.635-0.25,7.307-0.289,10.945-0.104
	c6.67,0.338,11.458,5.041,11.589,11.093c0.133,6.134-4.993,11.214-11.714,11.56C77.064,172.517,75.496,172.447,72.804,172.447z"/>
<path fill-rule="evenodd" clip-rule="evenodd" fill="#1A4E97" d="M43.375,126.188c-7.793-0.057-12.323-2.939-13.606-8.67
	c-1.693-7.555,2.773-13.548,10.518-14.025c2.252-0.139,4.522-0.188,6.774-0.079c6.822,0.326,11.303,4.716,11.426,11.069
	c0.125,6.445-4.591,11.276-11.463,11.701C45.813,126.259,44.591,126.195,43.375,126.188z"/>
<path fill-rule="evenodd" clip-rule="evenodd" fill="#1A4E97" d="M62.194,404.74c-2.217-0.337-4.979,0.033-6.535-1.166
	c-2.982-2.294-6.199-5.081-7.627-8.394c-1.755-4.07,0.474-8.128,3.786-11.11c4.507-4.056,17.108-3.68,21.373,0.611
	c3.517,3.539,4.572,7.759,2.624,12.398C73.298,403.072,68.227,404.714,62.194,404.74z"/>
</svg>
